<svg width="20" height="23" viewBox="0 0 20 23" fill="none" xmlns="http://www.w3.org/2000/svg">
<path fill-rule="evenodd" clip-rule="evenodd" d="M15 1.71094C15 1.29672 14.6642 0.960938 14.25 0.960938C13.8358 0.960938 13.5 1.29672 13.5 1.71094V2.96094H7V1.71094C7 1.29672 6.66421 0.960938 6.25 0.960938C5.83579 0.960938 5.5 1.29672 5.5 1.71094V2.96094H3.25C1.73122 2.96094 0.5 4.19215 0.5 5.71094V9.71094V19.7109C0.5 21.2297 1.73122 22.4609 3.25 22.4609H17.25C18.7688 22.4609 20 21.2297 20 19.7109V9.71094V5.71094C20 4.19215 18.7688 2.96094 17.25 2.96094H15V1.71094ZM18.5 8.96094V5.71094C18.5 5.02058 17.9404 4.46094 17.25 4.46094H15V5.71094C15 6.12515 14.6642 6.46094 14.25 6.46094C13.8358 6.46094 13.5 6.12515 13.5 5.71094V4.46094H7V5.71094C7 6.12515 6.66421 6.46094 6.25 6.46094C5.83579 6.46094 5.5 6.12515 5.5 5.71094V4.46094H3.25C2.55964 4.46094 2 5.02058 2 5.71094V8.96094H18.5ZM2 10.4609H18.5V19.7109C18.5 20.4013 17.9404 20.9609 17.25 20.9609H3.25C2.55964 20.9609 2 20.4013 2 19.7109V10.4609ZM10.25 12.9609C10.6642 12.9609 11 13.2967 11 13.7109V14.9609H12.25C12.6642 14.9609 13 15.2967 13 15.7109C13 16.1252 12.6642 16.4609 12.25 16.4609H11V17.7109C11 18.1252 10.6642 18.4609 10.25 18.4609C9.83579 18.4609 9.5 18.1252 9.5 17.7109V16.4609H8.25C7.83579 16.4609 7.5 16.1252 7.5 15.7109C7.5 15.2967 7.83579 14.9609 8.25 14.9609H9.5V13.7109C9.5 13.2967 9.83579 12.9609 10.25 12.9609Z" fill="#C1C5D6"/>
</svg>
