<svg width="11" height="18" viewBox="0 0 11 18" fill="none" xmlns="http://www.w3.org/2000/svg">
<path fill-rule="evenodd" clip-rule="evenodd" d="M6.21914 10.0205C4.46775 11.4216 2.32328 13.5549 0.881959 16.4377L3.11804 17.5557C4.34338 15.1049 6.19891 13.2382 7.78086 11.9727C8.5674 11.3435 9.27412 10.8726 9.7801 10.5612C10.0327 10.4058 10.2343 10.2907 10.3694 10.2161C10.437 10.1789 10.4879 10.1518 10.5201 10.1349L10.5543 10.1171L10.559 10.1147L10.5596 10.1144C10.5596 10.1144 10.5595 10.1144 10.559 10.1134L10.559 7.87991C10.5596 7.8789 10.5596 7.87892 10.5596 7.87893L10.559 7.87863L10.5543 7.87621L10.5201 7.85848C10.4879 7.84156 10.437 7.81446 10.3695 7.7772C10.2343 7.70263 10.0328 7.58756 9.78012 7.43209C9.27414 7.12072 8.56742 6.64981 7.78088 6.02057C6.19892 4.75498 4.34339 2.88827 3.11804 0.4375L0.881958 1.55551C2.32328 4.43823 4.46775 6.5716 6.21912 7.97273C6.71514 8.36954 7.18357 8.71078 7.60131 8.99664C7.18358 9.28249 6.71515 9.62371 6.21914 10.0205Z" fill="black"/>
</svg>
